# xmcd CD database file
#
# Track frame offsets:
#	150
#	17525
#	39650
#	61890
#	79807
#	94250
#	112657
#	133527
#	154410
#	174167
#	192725
#	212842
#	232135
#
# Disc length: 3365 seconds
#
# Revision: 0
# Processed by: cddbd v1.5.2PL0 Copyright (c) Steve Scherf et al.
# Submitted via: CDex 1.70beta2
#
DISCID=ac0d230d
DTITLE=Marica Hiraga (With Manhattan Jazz Quintet) - Close To Bacharach
DYEAR=2008
DGENRE=Jazz
TTITLE0=Raindrops Keep Falling ON mY Head
TTITLE1=Do You Know The Way to San Jose
TTITLE2=Alfie
TTITLE3=The Look Of Love
TTITLE4=What The World Needs Now Is Love
TTITLE5=They Long To Be Close To You
TTITLE6=Wives and Lovers
TTITLE7=A House Is Not A Home
TTITLE8=Arthur's Theme (Best That You Can Do)
TTITLE9=God Give Me Strength
TTITLE10=I'll Never Fall In Love Again
TTITLE11=This Guy's In Love With You
TTITLE12=That's What Friends Are For
EXTD=YEAR: 2008
EXTT0=
EXTT1=
EXTT2=
EXTT3=
EXTT4=
EXTT5=
EXTT6=
EXTT7=
EXTT8=
EXTT9=
EXTT10=
EXTT11=
EXTT12=
PLAYORDER=
